<?xml version="1.0" encoding="utf-8"?>
<!-- Generator: Adobe Illustrator 18.0.0, SVG Export Plug-In . SVG Version: 6.00 Build 0)  -->
<!DOCTYPE svg PUBLIC "-//W3C//DTD SVG 1.1//EN" "http://www.w3.org/Graphics/SVG/1.1/DTD/svg11.dtd">
<svg version="1.1" id="_x2018_ëîé_x5F_1" xmlns="http://www.w3.org/2000/svg" xmlns:xlink="http://www.w3.org/1999/xlink"
	 x="0px" y="0px" viewBox="0 0 82 74" enable-background="new 0 0 82 74" xml:space="preserve">
<g display="none">
	<g display="inline">
		<g>
			<polygon fill="#161A19" points="72.5,69.5 70.5,69.5 70.5,57.5 73.5,57.5 73.5,59.5 72.5,59.5 			"/>
			<polygon fill="#161A19" points="54.5,65.5 52.5,65.5 52.5,59.5 51.5,59.5 51.5,57.5 54.5,57.5 			"/>
			<path fill="#161A19" d="M78.5,69.5h-2v-14c0-6.4-4.2-11-10-11h-8c-6.6,0-9,5.9-9,11v2h-2v-2c0-7.8,4.4-13,11-13h8
				c6.8,0,12,5.6,12,13V69.5z"/>
			<path fill="#161A19" d="M62.5,40.5c-4.2,0-7-3.2-7-8s2.8-8,7-8s7,3.2,7,8S66.7,40.5,62.5,40.5z M62.5,26.5c-3.7,0-5,3.2-5,6
				s1.3,6,5,6s5-3.2,5-6S66.2,26.5,62.5,26.5z"/>
			<g>
				<rect x="61.5" y="51.5" fill="#161A19" width="2" height="2"/>
				<rect x="61.5" y="57.5" fill="#161A19" width="2" height="2"/>
				<rect x="61.5" y="63.5" fill="#161A19" width="2" height="2"/>
			</g>
		</g>
		<rect x="11.5" y="68.5" fill="#161A19" width="70" height="2"/>
		<g>
			<path fill="#161A19" d="M48.5,66.5h-29c-0.4,0-0.7-0.2-0.9-0.6l-8-17c-0.1-0.3-0.1-0.7,0.1-1c0.2-0.3,0.5-0.5,0.8-0.5h29
				c0.4,0,0.7,0.2,0.9,0.6l8,17c0.1,0.3,0.1,0.7-0.1,1C49.2,66.3,48.8,66.5,48.5,66.5z M20.1,64.5h26.8l-7.1-15H13.1L20.1,64.5z"/>
			<path fill="#161A19" d="M58.5,70.5h-39c-0.6,0-1-0.4-1-1v-4c0-0.6,0.4-1,1-1h39c0.6,0,1,0.4,1,1v4C59.5,70.1,59.1,70.5,58.5,70.5
				z M20.5,68.5h37v-2h-37V68.5z"/>
		</g>
	</g>
	<g display="inline">
		<polygon fill="#161A19" points="8.5,73.5 6.5,73.5 6.5,35.5 5.5,35.5 5.5,33.5 8.5,33.5 		"/>
		<polygon fill="#161A19" points="24.5,45.5 22.5,45.5 22.5,33.5 25.5,33.5 25.5,35.5 24.5,35.5 		"/>
		<path fill="#161A19" d="M4.5,51.5h-4v-20c0-7.4,5.2-13,12-13h6c6.8,0,12,5.6,12,13v14h-2v-14c0-6.4-4.2-11-10-11h-6
			c-5.8,0-10,4.6-10,11v18h2V51.5z"/>
		<path fill="#161A19" d="M15.5,16.5c-4.2,0-7-3.2-7-8s2.8-8,7-8s7,3.2,7,8S19.7,16.5,15.5,16.5z M15.5,2.5c-3.7,0-5,3.2-5,6
			s1.3,6,5,6s5-3.2,5-6S19.2,2.5,15.5,2.5z"/>
		<g>
			<rect x="14.5" y="27.5" fill="#161A19" width="2" height="2"/>
			<rect x="14.5" y="33.5" fill="#161A19" width="2" height="2"/>
			<rect x="14.5" y="39.5" fill="#161A19" width="2" height="2"/>
		</g>
	</g>
</g>
<g display="none">
	<path display="inline" fill="#161A19" d="M48,36H34c-0.3,0-0.6-0.1-0.8-0.4l-9-11C24.1,24.5,24,24.2,24,24V1c0-0.6,0.4-1,1-1h32
		c0.6,0,1,0.4,1,1v23c0,0.2-0.1,0.5-0.2,0.6l-9,11C48.6,35.9,48.3,36,48,36z M34.5,34h13.1L56,23.6V2H26v21.6L34.5,34z M57,24L57,24
		L57,24z"/>
	<path display="inline" fill="#161A19" d="M53,45c-0.6,0-1-0.4-1-1v-7c0-0.6-0.4-1-1-1H31c-0.6,0-1,0.4-1,1v7c0,0.6-0.4,1-1,1
		c-0.6,0-1-0.4-1-1v-7c0-1.7,1.3-3,3-3h20c1.7,0,3,1.3,3,3v7C54,44.6,53.6,45,53,45z"/>
	<g display="inline">
		<path fill="#161A19" d="M41,74c-9.9,0-18-8.1-18-18s8.1-18,18-18s18,8.1,18,18S50.9,74,41,74z M41,40c-8.8,0-16,7.2-16,16
			s7.2,16,16,16s16-7.2,16-16S49.8,40,41,40z"/>
		<path fill="#0B80C4" d="M47.2,67c-0.2,0-0.3,0-0.5-0.1L41,63.7l-5.7,3.1c-0.3,0.2-0.7,0.2-1.1-0.1c-0.3-0.2-0.5-0.6-0.4-1l1.1-6.7
			l-4.6-4.8c-0.3-0.3-0.4-0.7-0.2-1c0.1-0.4,0.4-0.6,0.8-0.7l6.4-1l2.9-6.1c0.2-0.4,0.5-0.6,0.9-0.6c0.4,0,0.7,0.2,0.9,0.6l2.9,6.1
			l6.4,1c0.4,0.1,0.7,0.3,0.8,0.7c0.1,0.4,0,0.7-0.2,1l-4.6,4.8l1.1,6.7c0.1,0.4-0.1,0.8-0.4,1C47.6,66.9,47.4,67,47.2,67z M41,61.6
			c0.2,0,0.3,0,0.5,0.1l4.4,2.4L45,58.9c-0.1-0.3,0-0.6,0.3-0.9l3.6-3.7l-5-0.8c-0.3-0.1-0.6-0.3-0.8-0.6L41,48.4L38.8,53
			c-0.1,0.3-0.4,0.5-0.8,0.6l-5,0.8l3.6,3.7c0.2,0.2,0.3,0.5,0.3,0.9l-0.8,5.2l4.4-2.4C40.7,61.6,40.8,61.6,41,61.6z"/>
	</g>
	<path display="inline" fill="#161A19" d="M48,36H34c-0.6,0-1-0.4-1-1V1c0-0.6,0.4-1,1-1h14c0.6,0,1,0.4,1,1v34
		C49,35.6,48.6,36,48,36z M35,34h12V2H35V34z"/>
	<g display="inline">
		<rect x="40" y="9" fill="#161A19" width="2" height="2"/>
		<rect x="40" y="15" fill="#161A19" width="2" height="2"/>
		<rect x="40" y="21" fill="#161A19" width="2" height="2"/>
	</g>
</g>
<g display="none">
	<path display="inline" fill="#161A19" d="M24,74H4V0h20V74z M6,72h16V2H6V72z"/>
	<path display="inline" fill="#161A19" d="M51,52H28V22h23V52z M30,50h19V24H30V50z"/>
	<path display="inline" fill="#161A19" d="M78,52H55V22h23V52z M57,50h19V24H57V50z"/>
	<g display="inline">
		<path fill="#161A19" d="M78,18H28V0h50V18z M30,16h46V2H30V16z"/>
		<rect x="46" y="8" fill="#0B80C4" width="2" height="2"/>
		<rect x="58" y="8" fill="#0B80C4" width="2" height="2"/>
		<rect x="52" y="8" fill="#0B80C4" width="2" height="2"/>
	</g>
	<g display="inline">
		<path fill="#161A19" d="M78,74H28V56h50V74z M30,72h46V58H30V72z"/>
		<rect x="46" y="64" fill="#0B80C4" width="2" height="2"/>
		<rect x="58" y="64" fill="#0B80C4" width="2" height="2"/>
		<rect x="52" y="64" fill="#0B80C4" width="2" height="2"/>
	</g>
	<g display="inline">
		<rect x="12" y="23" fill="#0B80C4" width="4" height="2"/>
		<rect x="10" y="30" fill="#0B80C4" width="8" height="2"/>
		<rect x="10" y="36" fill="#0B80C4" width="8" height="2"/>
		<rect x="10" y="42" fill="#0B80C4" width="8" height="2"/>
	</g>
</g>
<g display="none">
	<g display="inline">
		<g>
			<path fill="#161A19" d="M6,73.5H4v-8c0-6.3,4.5-11,10.6-11h6.9c2.5,0,4.7,0.8,6.5,2.2l-1.2,1.6c-1.5-1.2-3.3-1.8-5.3-1.8h-6.9
				c-5,0-8.6,3.8-8.6,9V73.5z"/>
			<path fill="#161A19" d="M18,52.5c-3.6,0-6-2.8-6-7s2.4-7,6-7c3.6,0,6,2.8,6,7S21.6,52.5,18,52.5z M18,40.5c-2.9,0-4,2.6-4,5
				s1.1,5,4,5c2.9,0,4-2.6,4-5S21,40.5,18,40.5z"/>
			<g>
				<rect x="17" y="63.5" fill="#161A19" width="2" height="2"/>
				<rect x="17" y="68.5" fill="#161A19" width="2" height="2"/>
			</g>
			<polygon fill="#161A19" points="11,73.5 9,73.5 9,68.5 8,68.5 8,66.5 11,66.5 			"/>
		</g>
		<g>
			<path fill="#161A19" d="M78,73.5h-2v-8c0-5.2-3.6-9-8.6-9h-6.9c-2,0-3.8,0.6-5.3,1.8L54,56.7c1.8-1.5,4.1-2.2,6.5-2.2h6.9
				c6,0,10.6,4.7,10.6,11V73.5z"/>
			<path fill="#161A19" d="M64,52.5c-3.6,0-6-2.8-6-7s2.4-7,6-7c3.6,0,6,2.8,6,7S67.6,52.5,64,52.5z M64,40.5c-2.9,0-4,2.6-4,5
				s1.1,5,4,5c2.9,0,4-2.6,4-5S66.9,40.5,64,40.5z"/>
			<g>
				<rect x="63" y="63.5" fill="#161A19" width="2" height="2"/>
				<rect x="63" y="68.5" fill="#161A19" width="2" height="2"/>
			</g>
			<polygon fill="#161A19" points="73,73.5 71,73.5 71,66.5 74,66.5 74,68.5 73,68.5 			"/>
		</g>
		<g>
			<path fill="#161A19" d="M55,73.5h-2v-8c0-5.2-3.6-9-8.6-9h-6.9c-5,0-8.6,3.8-8.6,9v8h-2v-8c0-6.3,4.5-11,10.6-11h6.9
				c6,0,10.6,4.7,10.6,11V73.5z"/>
			<path fill="#161A19" d="M41,52.5c-3.6,0-6-2.8-6-7s2.4-7,6-7c3.6,0,6,2.8,6,7S44.6,52.5,41,52.5z M41,40.5c-2.9,0-4,2.6-4,5
				s1.1,5,4,5c2.9,0,4-2.6,4-5S44,40.5,41,40.5z"/>
			<g>
				<rect x="40" y="63.5" fill="#161A19" width="2" height="2"/>
				<rect x="40" y="68.5" fill="#161A19" width="2" height="2"/>
			</g>
			<polygon fill="#161A19" points="34,73.5 32,73.5 32,68.5 31,68.5 31,66.5 34,66.5 			"/>
			<polygon fill="#161A19" points="50,73.5 48,73.5 48,66.5 51,66.5 51,68.5 50,68.5 			"/>
		</g>
	</g>
	<path display="inline" fill="#0B80C4" d="M41,10.5c-2.8,0-5-2.2-5-5c0-2.8,2.2-5,5-5c2.8,0,5,2.2,5,5C46,8.3,43.8,10.5,41,10.5z
		 M41,2.5c-1.7,0-3,1.3-3,3s1.3,3,3,3c1.7,0,3-1.3,3-3S42.7,2.5,41,2.5z"/>
	<rect x="40" y="9.7" display="inline" fill="#0B80C4" width="2" height="24.8"/>
	<g display="inline">
		<path fill="#0B80C4" d="M64,14.5c-2.8,0-5-2.2-5-5s2.2-5,5-5c2.8,0,5,2.2,5,5S66.8,14.5,64,14.5z M64,6.5c-1.7,0-3,1.3-3,3
			s1.3,3,3,3c1.7,0,3-1.3,3-3S65.7,6.5,64,6.5z"/>
		<path fill="#0B80C4" d="M52,30.5h-2v-5.6c0-2.4,2-4.4,4.4-4.4h6.1c1.3,0,2.4-1.1,2.4-2.4v-4.6h2v4.6c0,2.4-2,4.4-4.4,4.4h-6.1
			c-1.3,0-2.4,1.1-2.4,2.4V30.5z"/>
	</g>
	<g display="inline">
		<path fill="#0B80C4" d="M18,14.5c-2.8,0-5-2.2-5-5s2.2-5,5-5c2.8,0,5,2.2,5,5S20.8,14.5,18,14.5z M18,6.5c-1.7,0-3,1.3-3,3
			s1.3,3,3,3c1.7,0,3-1.3,3-3S19.7,6.5,18,6.5z"/>
		<path fill="#0B80C4" d="M32,30.5h-2v-5.6c0-1.3-1.1-2.4-2.4-2.4h-6.1c-2.4,0-4.4-2-4.4-4.4v-4.6h2v4.6c0,1.3,1.1,2.4,2.4,2.4h6.1
			c2.4,0,4.4,2,4.4,4.4V30.5z"/>
	</g>
</g>
<g display="none">
	<g display="inline">
		<g>
			<path fill="#161A19" d="M51.3,35.1c-0.3,0-0.5-0.1-0.7-0.3L40.8,25c-0.4-0.4-0.4-1,0-1.4c0.4-0.4,1-0.4,1.4,0l9.1,9.1l4.2-4.2
				l-9.1-9.1c-0.4-0.4-0.4-1,0-1.4c0.4-0.4,1-0.4,1.4,0l9.8,9.8c0.4,0.4,0.4,1,0,1.4l-5.7,5.7C51.9,35,51.6,35.1,51.3,35.1z"/>
			<path fill="#161A19" d="M35.7,19.5c-0.3,0-0.5-0.1-0.7-0.3l-9.8-9.8c-0.4-0.4-0.4-1,0-1.4l5.7-5.7c0.4-0.4,1-0.4,1.4,0l9.9,9.9
				c0.4,0.4,0.4,1,0,1.4c-0.4,0.4-1,0.4-1.4,0l-9.2-9.2l-4.2,4.2l9.1,9.1c0.4,0.4,0.4,1,0,1.4C36.2,19.4,36,19.5,35.7,19.5z"/>
			
				<rect x="30.2" y="10.3" transform="matrix(0.7071 0.7071 -0.7071 0.7071 17.5069 -18.5876)" fill="#161A19" width="2" height="3"/>
			
				<rect x="47.2" y="27.3" transform="matrix(0.7071 0.7071 -0.7071 0.7071 34.4773 -25.617)" fill="#161A19" width="2" height="3"/>
		</g>
		<g>
			<path fill="#161A19" d="M33,33.7c-0.3,0-0.5-0.1-0.7-0.3l-5.7-5.7c-0.4-0.4-0.4-1,0-1.4L47.8,5.1c0.4-0.4,1-0.4,1.4,0l5.7,5.7
				c0.4,0.4,0.4,1,0,1.4L33.7,33.4C33.5,33.6,33.2,33.7,33,33.7z M28.7,27l4.2,4.2l19.8-19.8l-4.2-4.2L28.7,27z"/>
			<path fill="#161A19" d="M54.2,12.5c-0.3,0-0.5-0.1-0.7-0.3l-5.7-5.7c-0.3-0.3-0.4-0.6-0.3-1c0.1-0.4,0.4-0.6,0.8-0.7l7.1-1.4
				c0.3-0.1,0.7,0,0.9,0.3c0.2,0.2,0.3,0.6,0.3,0.9l-1.4,7.1c-0.1,0.4-0.3,0.7-0.7,0.8C54.4,12.5,54.3,12.5,54.2,12.5z M50.5,6.4
				l3,3l0.8-3.8L50.5,6.4z"/>
			<path fill="#161A19" d="M35.8,30.9c-0.3,0-0.5-0.1-0.7-0.3l-5.7-5.7c-0.4-0.4-0.4-1,0-1.4c0.4-0.4,1-0.4,1.4,0l5.7,5.7
				c0.4,0.4,0.4,1,0,1.4C36.3,30.8,36,30.9,35.8,30.9z"/>
		</g>
	</g>
	<g display="inline">
		<path fill="#161A19" d="M77,72H5c-0.6,0-1-0.4-1-1v-4c0-0.6,0.4-1,1-1h72c0.6,0,1,0.4,1,1v4C78,71.6,77.6,72,77,72z M6,70h70v-2H6
			V70z"/>
		<path fill="#161A19" d="M77,68H5c-0.4,0-0.7-0.2-0.9-0.5c-0.2-0.3-0.1-0.7,0.1-1l9-13c0.2-0.3,0.5-0.4,0.8-0.4h54
			c0.3,0,0.6,0.2,0.8,0.4l9,13c0.2,0.3,0.2,0.7,0.1,1C77.7,67.8,77.4,68,77,68z M6.9,66h68.2l-7.6-11h-53L6.9,66z"/>
		<path fill="#161A19" d="M66,62H16c-0.6,0-1-0.4-1-1s0.4-1,1-1h50c0.6,0,1,0.4,1,1S66.6,62,66,62z"/>
		<g>
			<path fill="#161A19" d="M69,55H13V21c0-3.3,2.7-6,6-6h7v2h-7c-2.2,0-4,1.8-4,4v32h52V21c0-2.2-1.8-4-4-4h-7v-2h7c3.3,0,6,2.7,6,6
				V55z"/>
			<polygon fill="#161A19" points="65,51 17,51 17,20 26,20 26,22 19,22 19,49 63,49 63,22 56,22 56,20 65,20 			"/>
		</g>
		<rect x="30" y="42" fill="#0B80C4" width="22" height="2"/>
		<rect x="40" y="36" fill="#0B80C4" width="2" height="2"/>
		<rect x="46" y="36" fill="#0B80C4" width="2" height="2"/>
		<rect x="34" y="36" fill="#0B80C4" width="2" height="2"/>
	</g>
</g>
<g display="none">
	<g display="inline">
		<path fill="#161A19" d="M46,73.5h-2V69l0.5-0.3c2.3-1.2,4-3.1,4.9-5.5l0-0.1l5-10.2c0.8-1.9,0.8-3.4,0.2-4.3
			c-0.6-0.8-1.7-1.2-2.6-1.4l0,4.3l-2,0l0-6.2l0,0l0-16.9c0-0.7-1-1.4-2.1-1.4c-0.9,0-1.8,0.7-1.8,1.5l-0.2,18.2l-2,0l0.1-7.6
			c0-0.7-1.1-1.4-2.2-1.4c-0.6,0-1.2,0.2-1.6,0.5c-0.4,0.3-0.6,0.6-0.6,0.9l0,7.5l-2,0l-0.1-6c0-0.7-0.9-1.5-2.3-1.5
			c-1.3,0-2.3,1.2-2.3,1.9l0,1.4c0,0.1,0,0.2,0,0.3l0.1,3.8l-2,0.1l-0.1-4c0-0.2-0.1-0.4-0.3-0.6c-0.2-0.2-0.6-0.3-1-0.3
			c-0.8,0-1.2,0.3-1.5,1.5l0,17.2c0.3,2,1.5,4.2,3.7,6.6l0.3,0.3v6.2h-2v-5.4c-2.3-2.6-3.7-5.1-4-7.4l0-0.1L26,42.9
			c0.3-1.3,1-3,3.3-3.1c0.5,0,1.1,0.1,1.5,0.2c0.5-1.5,2.1-2.8,4.1-2.8c0,0,0,0,0.1,0c1,0,1.9,0.3,2.6,0.7c0.2-0.5,0.6-1,1.1-1.3
			c0.8-0.6,1.8-0.9,2.9-0.9c0.8,0,1.6,0.2,2.2,0.5l0.1-7.7c0-1.9,1.8-3.5,3.9-3.5c2,0,4.1,1.4,4,3.4l0,16.9c1.4,0.1,3.2,0.7,4.3,2.2
			c1.1,1.6,1.1,3.7,0,6.3l-5,10.2c-1,2.7-2.8,4.8-5.3,6.3V73.5z"/>
	</g>
	<rect x="8" y="31" display="inline" fill="#0B80C4" width="2" height="21"/>
	<g display="inline">
		<path fill="#0B80C4" d="M41,10.5c-2.8,0-5-2.2-5-5s2.2-5,5-5c2.8,0,5,2.2,5,5S43.8,10.5,41,10.5z M41,2.5c-1.7,0-3,1.3-3,3
			s1.3,3,3,3c1.7,0,3-1.3,3-3S42.7,2.5,41,2.5z"/>
		<rect x="40" y="9.5" fill="#0B80C4" width="2" height="13"/>
	</g>
	<g display="inline">
		<path fill="#0B80C4" d="M9,28.5c-0.8,0-1.7-0.2-2.5-0.7c-1.2-0.7-2-1.7-2.3-3C3.8,23.5,4,22.2,4.7,21c0.7-1.2,1.7-2,3-2.3
			c1.3-0.3,2.6-0.2,3.8,0.5c1.2,0.7,2,1.7,2.3,3c0.3,1.3,0.2,2.6-0.5,3.8C12.4,27.6,10.7,28.5,9,28.5z M9,20.5c-0.3,0-0.5,0-0.8,0.1
			c-0.8,0.2-1.4,0.7-1.8,1.4c-0.8,1.4-0.3,3.3,1.1,4.1c1.4,0.8,3.3,0.3,4.1-1.1c0.4-0.7,0.5-1.5,0.3-2.3c-0.2-0.8-0.7-1.4-1.4-1.8
			l0,0C10,20.6,9.5,20.5,9,20.5z"/>
		<rect x="11.6" y="27.7" transform="matrix(0.866 0.5 -0.5 0.866 16.799 -5.1952)" fill="#0B80C4" width="13" height="2"/>
	</g>
	<g display="inline">
		<path fill="#0B80C4" d="M73,28.5c-1.7,0-3.4-0.9-4.3-2.5c-0.7-1.2-0.8-2.5-0.5-3.8c0.3-1.3,1.2-2.4,2.3-3l0,0
			c1.2-0.7,2.5-0.8,3.8-0.5c1.3,0.3,2.4,1.2,3,2.3c0.7,1.2,0.8,2.5,0.5,3.8c-0.3,1.3-1.2,2.4-2.3,3C74.7,28.3,73.9,28.5,73,28.5z
			 M73,20.5c-0.5,0-1,0.1-1.5,0.4l0,0c-0.7,0.4-1.2,1-1.4,1.8c-0.2,0.8-0.1,1.6,0.3,2.3c0.8,1.4,2.7,1.9,4.1,1.1
			c1.4-0.8,1.9-2.7,1.1-4.1c-0.4-0.7-1-1.2-1.8-1.4C73.5,20.5,73.3,20.5,73,20.5z"/>
		<rect x="62.9" y="22.2" transform="matrix(0.4999 0.8661 -0.8661 0.4999 56.8571 -40.97)" fill="#0B80C4" width="2" height="13"/>
	</g>
	<g display="inline">
		<path fill="#0B80C4" d="M73,64.5c-0.9,0-1.7-0.2-2.5-0.7c-1.2-0.7-2-1.7-2.3-3c-0.3-1.3-0.2-2.6,0.5-3.8c0.7-1.2,1.7-2,3-2.3
			c1.3-0.3,2.6-0.2,3.8,0.5c2.4,1.4,3.2,4.4,1.8,6.8c-0.7,1.2-1.7,2-3,2.3C73.9,64.4,73.4,64.5,73,64.5z M73,56.5
			c-0.3,0-0.5,0-0.8,0.1c-0.8,0.2-1.4,0.7-1.8,1.4c-0.4,0.7-0.5,1.5-0.3,2.3c0.2,0.8,0.7,1.4,1.4,1.8l0,0c1.4,0.8,3.3,0.3,4.1-1.1
			c0.8-1.4,0.3-3.3-1.1-4.1C74,56.6,73.5,56.5,73,56.5z"/>
		
			<rect x="58.9" y="53.6" transform="matrix(0.865 0.5018 -0.5018 0.865 36.1328 -25.0319)" fill="#0B80C4" width="11.5" height="2"/>
	</g>
	<g display="inline">
		<path fill="#0B80C4" d="M9,64.5c-0.4,0-0.9-0.1-1.3-0.2c-1.3-0.3-2.4-1.2-3-2.3c-1.4-2.4-0.6-5.5,1.8-6.8c1.2-0.7,2.5-0.8,3.8-0.5
			c1.3,0.3,2.4,1.2,3,2.3c0.7,1.2,0.8,2.5,0.5,3.8c-0.3,1.3-1.2,2.4-2.3,3l0,0C10.7,64.3,9.9,64.5,9,64.5z M9,56.5
			c-0.5,0-1,0.1-1.5,0.4c-1.4,0.8-1.9,2.7-1.1,4.1c0.8,1.4,2.7,1.9,4.1,1.1l0,0c0.7-0.4,1.2-1,1.4-1.8c0.2-0.8,0.1-1.6-0.3-2.3
			c-0.4-0.7-1-1.2-1.8-1.4C9.5,56.5,9.3,56.5,9,56.5z"/>
		
			<rect x="17.1" y="47.7" transform="matrix(0.4999 0.8661 -0.8661 0.4999 56.0324 11.4584)" fill="#0B80C4" width="2" height="13"/>
	</g>
	<rect x="72.1" y="31" display="inline" fill="#0B80C4" width="2" height="21"/>
	
		<rect x="46.7" y="12.4" transform="matrix(0.8782 0.4782 -0.4782 0.8782 13.3993 -25.7811)" display="inline" fill="#0B80C4" width="21.2" height="2"/>
	
		<rect x="23.7" y="2.7" transform="matrix(0.4726 0.8813 -0.8813 0.4726 24.7778 -14.7362)" display="inline" fill="#E5462A" width="2" height="21.2"/>
</g>
<g display="none">
	<g display="inline">
		<path fill="#161A19" d="M72,60H20c-3.3,0-6-2.7-6-6V11c0-3.3,2.7-6,6-6h52c3.3,0,6,2.7,6,6v43C78,57.3,75.3,60,72,60z M20,7
			c-2.2,0-4,1.8-4,4v43c0,2.2,1.8,4,4,4h52c2.2,0,4-1.8,4-4V11c0-2.2-1.8-4-4-4H20z"/>
		<rect x="15" y="15" fill="#161A19" width="62" height="2"/>
		<path fill="#161A19" d="M62,69H10c-3.3,0-6-2.7-6-6V20c0-3.3,2.7-6,6-6h2v2h-2c-2.2,0-4,1.8-4,4v43c0,2.2,1.8,4,4,4h52
			c2.2,0,4-1.8,4-4v-1h2v1C68,66.3,65.3,69,62,69z"/>
		<rect x="5" y="25" fill="#161A19" width="7" height="2"/>
		<rect x="22" y="10" fill="#161A19" width="2" height="2"/>
		<rect x="28" y="10" fill="#161A19" width="2" height="2"/>
		<rect x="34" y="10" fill="#161A19" width="2" height="2"/>
	</g>
	<g display="inline">
		<path fill="#161A19" d="M31,49c-6.1,0-11-4.9-11-11s4.9-11,11-11c1.9,0,3.8,0.5,5.5,1.5l-1,1.7C34.1,29.4,32.6,29,31,29
			c-5,0-9,4-9,9s4,9,9,9c5,0,9-4,9-9c0-0.9-0.1-1.8-0.4-2.7l1.9-0.6c0.3,1.1,0.5,2.2,0.5,3.3C42,44.1,37.1,49,31,49z"/>
		<polygon fill="#0B80C4" points="31.1,43.5 25.1,37.7 26.5,36.2 30.9,40.5 40.2,27.4 41.8,28.6 		"/>
	</g>
	<g display="inline">
		<rect x="48" y="27" fill="#161A19" width="24" height="2"/>
		<rect x="48" y="33" fill="#161A19" width="24" height="2"/>
	</g>
	<g display="inline">
		<rect x="48" y="41" fill="#161A19" width="24" height="2"/>
		<rect x="48" y="47" fill="#161A19" width="24" height="2"/>
	</g>
</g>
<g display="none">
	<g display="inline">
		<path fill="#161A19" d="M41,73.5c-2.8,0-5-2.3-5-5c0-2.8,2.2-5,5-5c2.8,0,5,2.3,5,5C46,71.2,43.8,73.5,41,73.5z M41,65.4
			c-1.7,0-3,1.4-3,3c0,1.7,1.3,3,3,3c1.7,0,3-1.4,3-3C44,66.8,42.7,65.4,41,65.4z"/>
		<rect x="40" y="49.5" fill="#161A19" width="2" height="14.8"/>
		<g>
			<path fill="#161A19" d="M18,73.5c-2.8,0-5-2.2-5-5s2.2-5,5-5c2.8,0,5,2.2,5,5S20.8,73.5,18,73.5z M18,65.5c-1.7,0-3,1.3-3,3
				s1.3,3,3,3c1.7,0,3-1.3,3-3S19.7,65.5,18,65.5z"/>
			<path fill="#161A19" d="M19,64.5h-2v-4.6c0-2.4,2-4.4,4.4-4.4h6.1c1.3,0,2.4-1.1,2.4-2.4v-3.4h2v3.4c0,2.4-2,4.4-4.4,4.4h-6.1
				c-1.3,0-2.4,1.1-2.4,2.4V64.5z"/>
		</g>
		<g>
			<path fill="#161A19" d="M64,73.5c-2.8,0-5-2.2-5-5s2.2-5,5-5c2.8,0,5,2.2,5,5S66.8,73.5,64,73.5z M64,65.5c-1.7,0-3,1.3-3,3
				s1.3,3,3,3c1.7,0,3-1.3,3-3S65.7,65.5,64,65.5z"/>
			<path fill="#161A19" d="M65,64.5h-2v-4.6c0-1.3-1.1-2.4-2.4-2.4h-6.1c-2.4,0-4.4-2-4.4-4.4v-3.4h2v3.4c0,1.3,1.1,2.4,2.4,2.4h6.1
				c2.4,0,4.4,2,4.4,4.4V64.5z"/>
		</g>
	</g>
	<g display="inline">
		<path fill="#161A19" d="M41,10.6c-2.8,0-5-2.3-5-5c0-2.8,2.2-5,5-5c2.8,0,5,2.3,5,5C46,8.3,43.8,10.6,41,10.6z M41,2.5
			c-1.7,0-3,1.4-3,3c0,1.7,1.3,3,3,3c1.7,0,3-1.4,3-3C44,3.9,42.7,2.5,41,2.5z"/>
		<rect x="40" y="9.7" fill="#161A19" width="2" height="14.8"/>
		<g>
			<path fill="#161A19" d="M18,10.5c-2.8,0-5-2.2-5-5s2.2-5,5-5c2.8,0,5,2.2,5,5S20.8,10.5,18,10.5z M18,2.5c-1.7,0-3,1.3-3,3
				s1.3,3,3,3c1.7,0,3-1.3,3-3S19.7,2.5,18,2.5z"/>
			<path fill="#161A19" d="M32,24.3h-2v-3.4c0-1.3-1.1-2.4-2.4-2.4h-6.1c-2.4,0-4.4-2-4.4-4.4V9.5h2v4.6c0,1.3,1.1,2.4,2.4,2.4h6.1
				c2.4,0,4.4,2,4.4,4.4V24.3z"/>
		</g>
		<g>
			<path fill="#161A19" d="M64,10.5c-2.8,0-5-2.2-5-5s2.2-5,5-5c2.8,0,5,2.2,5,5S66.8,10.5,64,10.5z M64,2.5c-1.7,0-3,1.3-3,3
				s1.3,3,3,3c1.7,0,3-1.3,3-3S65.7,2.5,64,2.5z"/>
			<path fill="#161A19" d="M52,24.3h-2v-3.4c0-2.4,2-4.4,4.4-4.4h6.1c1.3,0,2.4-1.1,2.4-2.4V9.5h2v4.6c0,2.4-2,4.4-4.4,4.4h-6.1
				c-1.3,0-2.4,1.1-2.4,2.4V24.3z"/>
		</g>
	</g>
	<g display="inline">
		<path fill="#0B80C4" d="M46.5,46.5c-0.2,0-0.3,0-0.5-0.1l-5.2-2.7l-5.2,2.7c-0.3,0.2-0.7,0.1-1.1-0.1c-0.3-0.2-0.5-0.6-0.4-1
			l1-5.6l-4.2-4c-0.3-0.3-0.4-0.7-0.3-1c0.1-0.4,0.4-0.6,0.8-0.7l5.8-0.8l2.6-5.1c0.3-0.7,1.4-0.7,1.8,0l2.6,5.1l5.8,0.8
			c0.4,0.1,0.7,0.3,0.8,0.7c0.1,0.4,0,0.8-0.3,1l-4.2,4l1,5.6c0.1,0.4-0.1,0.8-0.4,1C46.9,46.4,46.7,46.5,46.5,46.5z M33.9,35.7
			l3.1,2.9c0.2,0.2,0.4,0.6,0.3,0.9l-0.7,4.2l3.8-2c0.3-0.1,0.6-0.1,0.9,0l3.8,2l-0.7-4.2c-0.1-0.3,0.1-0.7,0.3-0.9l3.1-2.9
			l-4.3-0.6c-0.3,0-0.6-0.2-0.8-0.5l-1.9-3.8L39,34.5c-0.1,0.3-0.4,0.5-0.8,0.5L33.9,35.7z"/>
		<path fill="#0B80C4" d="M30.7,46.3c-0.2,0-0.3,0-0.5-0.1l-4-2.1l-4,2.1c-0.3,0.2-0.7,0.1-1.1-0.1c-0.3-0.2-0.5-0.6-0.4-1l0.8-4.3
			l-3.2-3.1c-0.3-0.3-0.4-0.7-0.3-1c0.1-0.4,0.4-0.6,0.8-0.7l4.4-0.6l2-3.9c0.3-0.7,1.4-0.7,1.8,0l2,3.9l0.8,0.1l-0.3,2l-1.4-0.2
			c-0.3,0-0.6-0.2-0.8-0.5l-1.3-2.6L25,36.8c-0.1,0.3-0.4,0.5-0.8,0.5l-2.9,0.4l2.1,2c0.2,0.2,0.4,0.6,0.3,0.9l-0.5,2.9l2.6-1.4
			c0.3-0.1,0.6-0.1,0.9,0l2.6,1.4l-0.5-2.9c-0.1-0.3,0.1-0.7,0.3-0.9L31,38l1.4,1.4l-1.5,1.4l0.8,4.3c0.1,0.4-0.1,0.8-0.4,1
			C31.1,46.2,30.9,46.3,30.7,46.3z"/>
		<path fill="#0B80C4" d="M59.9,46.3c-0.2,0-0.3,0-0.5-0.1l-4-2.1l-4,2.1c-0.3,0.2-0.7,0.1-1.1-0.1c-0.3-0.2-0.5-0.6-0.4-1l0.8-4.3
			l-1.7-1.6l1.4-1.4l2.1,2c0.2,0.2,0.4,0.6,0.3,0.9l-0.5,2.9l2.6-1.4c0.3-0.1,0.6-0.1,0.9,0l2.6,1.4l-0.5-2.9
			c-0.1-0.3,0.1-0.7,0.3-0.9l2.1-2l-2.9-0.4c-0.3,0-0.6-0.2-0.8-0.5l-1.3-2.6l-1.3,2.6c-0.1,0.3-0.4,0.5-0.8,0.5l-1.7,0.2l-0.3-2
			l1.2-0.2l2-3.9c0.3-0.7,1.4-0.7,1.8,0l2,3.9l4.4,0.6c0.4,0.1,0.7,0.3,0.8,0.7c0.1,0.4,0,0.8-0.3,1l-3.2,3.1l0.8,4.3
			c0.1,0.4-0.1,0.8-0.4,1C60.3,46.2,60.1,46.3,59.9,46.3z"/>
		<path fill="#0B80C4" d="M74.3,46.3c-0.2,0-0.3,0-0.5-0.1l-4-2.1l-4,2.1c-0.3,0.2-0.7,0.1-1.1-0.1c-0.3-0.2-0.5-0.6-0.4-1l0.8-4.3
			l-1.7-1.6l1.4-1.4l2.1,2c0.2,0.2,0.4,0.6,0.3,0.9l-0.5,2.9l2.6-1.4c0.3-0.1,0.6-0.1,0.9,0l2.6,1.4l-0.5-2.9
			c-0.1-0.3,0.1-0.7,0.3-0.9l2.1-2l-2.9-0.4c-0.3,0-0.6-0.2-0.8-0.5l-1.3-2.6l-1.3,2.6c-0.1,0.3-0.4,0.5-0.8,0.5l-1.7,0.2l-0.3-2
			l1.2-0.2l2-3.9c0.2-0.3,0.5-0.6,0.9-0.6l0,0c0.4,0,0.7,0.2,0.9,0.6l2,3.9l4.4,0.6c0.4,0.1,0.7,0.3,0.8,0.7c0.1,0.4,0,0.8-0.3,1
			l-3.2,3.1l0.8,4.3c0.1,0.4-0.1,0.8-0.4,1C74.7,46.2,74.5,46.3,74.3,46.3z"/>
		<path fill="#0B80C4" d="M16.6,46.3c-0.2,0-0.3,0-0.5-0.1l-4-2.1l-4,2.1c-0.3,0.2-0.7,0.1-1.1-0.1c-0.3-0.2-0.5-0.6-0.4-1l0.8-4.3
			l-3.2-3.1c-0.3-0.3-0.4-0.7-0.3-1c0.1-0.4,0.4-0.6,0.8-0.7l4.4-0.6l2-3.9c0.3-0.7,1.4-0.7,1.8,0l2,3.9l1.2,0.2l-0.3,2l-1.7-0.2
			c-0.3,0-0.6-0.2-0.8-0.5l-1.3-2.6l-1.3,2.6c-0.1,0.3-0.4,0.5-0.8,0.5l-2.9,0.4l2.1,2c0.2,0.2,0.4,0.6,0.3,0.9l-0.5,2.9l2.6-1.4
			c0.3-0.1,0.6-0.1,0.9,0l2.6,1.4l-0.5-2.9c-0.1-0.3,0.1-0.7,0.3-0.9l2.1-2l1.4,1.4l-1.7,1.6l0.8,4.3c0.1,0.4-0.1,0.8-0.4,1
			C17,46.2,16.8,46.3,16.6,46.3z"/>
	</g>
</g>
<g display="none">
	<g display="inline">
		<path fill="#161A19" d="M52,63H30c-3.3,0-6-2.7-6-6V17c0-3.3,2.7-6,6-6h22c3.3,0,6,2.7,6,6v40C58,60.3,55.3,63,52,63z M30,13
			c-2.2,0-4,1.8-4,4v40c0,2.2,1.8,4,4,4h22c2.2,0,4-1.8,4-4V17c0-2.2-1.8-4-4-4H30z"/>
		<polygon fill="#161A19" points="57,55 24,55 24,19 57,19 57,21 26,21 26,53 57,53 		"/>
		<rect x="37" y="15" fill="#161A19" width="8" height="2"/>
		<rect x="40" y="57" fill="#161A19" width="2" height="2"/>
	</g>
	<g display="inline">
		<path fill="#0B80C4" d="M72,63H61v-2h11c2.2,0,4-1.8,4-4V17c0-2.2-1.8-4-4-4H61v-2h11c3.3,0,6,2.7,6,6v40C78,60.3,75.3,63,72,63z"
			/>
		<rect x="61" y="19" fill="#0B80C4" width="16" height="2"/>
		<rect x="61" y="26" fill="#0B80C4" width="11" height="2"/>
		<rect x="61" y="33" fill="#0B80C4" width="11" height="2"/>
		<polygon fill="#0B80C4" points="73,56 61,56 61,54 71,54 71,42 61,42 61,40 73,40 		"/>
	</g>
	<g display="inline">
		<path fill="#0B80C4" d="M21,63H10c-3.3,0-6-2.7-6-6V17c0-3.3,2.7-6,6-6h11v2H10c-2.2,0-4,1.8-4,4v40c0,2.2,1.8,4,4,4h11V63z"/>
		<rect x="5" y="19" fill="#0B80C4" width="16" height="2"/>
		<g>
			<rect x="10" y="47" fill="#0B80C4" width="11" height="2"/>
			<rect x="10" y="54" fill="#0B80C4" width="11" height="2"/>
		</g>
		<polygon fill="#0B80C4" points="21,42 9,42 9,26 21,26 21,28 11,28 11,40 21,40 		"/>
	</g>
</g>
<g display="none">
	<g display="inline">
		<path fill="#161A19" d="M24,49c-5,0-9-4-9-9s4-9,9-9c1.3,0,2.6,0.3,3.7,0.8l-0.8,1.8C26,33.2,25,33,24,33c-3.9,0-7,3.1-7,7
			s3.1,7,7,7c3.9,0,7-3.1,7-7c0-0.5,0-1-0.1-1.4l2-0.4c0.1,0.6,0.2,1.2,0.2,1.8C33,45,29,49,24,49z"/>
		<polygon fill="#0B80C4" points="24.1,44.8 19.1,39.9 20.5,38.5 23.8,41.7 31.2,31.4 32.8,32.6 		"/>
	</g>
	<g display="inline">
		<rect x="47" y="45" fill="#161A19" width="18" height="2"/>
		<path fill="#161A19" d="M68,65h-1V27h1c4.4,0,8-3.6,8-8s-3.6-8-8-8H22v6h-2V9h48c5.5,0,10,4.5,10,10v36C78,60.5,73.5,65,68,65z
			 M69,29v34c3.9-0.5,7-3.9,7-7.9V25C74.4,27.2,71.9,28.7,69,29z"/>
	</g>
	<path display="inline" fill="#161A19" d="M39,54H10c-3.3,0-6-2.7-6-6V25c0-3.3,2.7-6,6-6h29c3.3,0,6,2.7,6,6v23
		C45,51.3,42.3,54,39,54z M10,21c-2.2,0-4,1.8-4,4v23c0,2.2,1.8,4,4,4h29c2.2,0,4-1.8,4-4V25c0-2.2-1.8-4-4-4H10z"/>
	<rect x="5" y="26" display="inline" fill="#161A19" width="39" height="2"/>
	<g display="inline">
		<rect x="49" y="19" fill="#161A19" width="14" height="2"/>
		<rect x="49" y="26" fill="#161A19" width="14" height="2"/>
		<rect x="49" y="33" fill="#161A19" width="14" height="2"/>
	</g>
</g>
<g>
	<path fill="#161A19" d="M23.9,48.7c-0.4,0-0.7-0.2-0.9-0.6c-0.6-1.2-1.1-2.4-1.5-3.7c-0.2-0.5,0.1-1.1,0.7-1.3
		c0.5-0.2,1.1,0.1,1.3,0.7c0.4,1.2,0.8,2.3,1.4,3.4c0.2,0.5,0,1.1-0.4,1.3C24.2,48.7,24,48.7,23.9,48.7z"/>
	<path fill="#161A19" d="M35.3,59.8c-0.1,0-0.3,0-0.4-0.1c-3.5-1.6-6.7-4.1-9.1-7.2c-0.3-0.4-0.3-1.1,0.2-1.4
		c0.4-0.3,1.1-0.3,1.4,0.2c2.2,2.8,5.1,5.1,8.4,6.7c0.5,0.2,0.7,0.8,0.5,1.3C36,59.6,35.7,59.8,35.3,59.8z"/>
	<path fill="#161A19" d="M45.4,62c-1.8,0-3.6-0.2-5.3-0.6c-0.5-0.1-0.9-0.6-0.8-1.2c0.1-0.5,0.7-0.9,1.2-0.8
		c1.6,0.3,3.2,0.5,4.9,0.5c12.7,0,23-10.3,23-23s-10.3-23-23-23c-6.7,0-13,2.9-17.4,8c-0.4,0.4-1,0.5-1.4,0.1
		c-0.4-0.4-0.5-1-0.1-1.4c4.8-5.5,11.7-8.7,18.9-8.7c13.8,0,25,11.2,25,25S59.2,62,45.4,62z"/>
	<path fill="#161A19" d="M45.4,51c-7.7,0-14-6.3-14-14c0-0.9,0.1-1.9,0.3-2.8c0.1-0.5,0.6-0.9,1.2-0.8c0.5,0.1,0.9,0.6,0.8,1.2
		c-0.2,0.8-0.2,1.6-0.2,2.4c0,6.6,5.4,12,12,12c6.6,0,12-5.4,12-12s-5.4-12-12-12c-2.9,0-5.6,1-7.8,2.9c-0.4,0.4-1.1,0.3-1.4-0.1
		c-0.4-0.4-0.3-1.1,0.1-1.4c2.5-2.2,5.8-3.4,9.1-3.4c7.7,0,14,6.3,14,14S53.1,51,45.4,51z"/>
	<path fill="#0B80C4" d="M45.4,42c-2.8,0-5-2.2-5-5s2.2-5,5-5c2.8,0,5,2.2,5,5S48.1,42,45.4,42z M45.4,34c-1.7,0-3,1.3-3,3
		s1.3,3,3,3c1.7,0,3-1.3,3-3S47,34,45.4,34z"/>
	<rect x="44.4" y="8" fill="#161A19" width="2" height="19"/>
	<rect x="44.4" y="47" fill="#161A19" width="2" height="19"/>
	<rect x="55.4" y="36" fill="#161A19" width="19" height="2"/>
	<rect x="16.4" y="36" fill="#161A19" width="19" height="2"/>
	<g>
		<path fill="#0B80C4" d="M45.4,38c-0.2,0-0.3,0-0.5-0.1L9.7,17.5c-0.5-0.3-0.6-0.9-0.4-1.4c0.3-0.5,0.9-0.6,1.4-0.4l35.2,20.3
			c0.5,0.3,0.6,0.9,0.4,1.4C46.1,37.8,45.7,38,45.4,38z"/>
		<path fill="#0B80C4" d="M16,26.7l-8.4-4.8l7.8-3.3l8.4,4.8L16,26.7z M12.1,22.1l4,2.3l3.2-1.4l-4-2.3L12.1,22.1z"/>
		<path fill="#0B80C4" d="M22.8,25.1l-8.4-4.8l-1-8.4l8.4,4.8L22.8,25.1z M16.3,19l4,2.3l-0.4-3.5l-4-2.3L16.3,19z"/>
	</g>
</g>
<g display="none">
	<g display="inline">
		<path fill="#0B80C4" d="M41,16.6c-2.8,0-5-2.3-5-5c0-2.8,2.2-5,5-5c2.8,0,5,2.3,5,5C46,14.3,43.8,16.6,41,16.6z M41,8.5
			c-1.7,0-3,1.4-3,3s1.3,3,3,3c1.7,0,3-1.4,3-3S42.7,8.5,41,8.5z"/>
		<rect x="40" y="15.7" fill="#0B80C4" width="2" height="14.8"/>
	</g>
	<path display="inline" fill="#0B80C4" d="M58,28.5c-2.8,0-5-2.3-5-5c0-2.8,2.2-5,5-5c2.8,0,5,2.3,5,5C63,26.2,60.8,28.5,58,28.5z
		 M58,20.4c-1.7,0-3,1.4-3,3c0,1.7,1.3,3,3,3c1.7,0,3-1.4,3-3C61,21.8,59.7,20.4,58,20.4z"/>
	<path display="inline" fill="#0B80C4" d="M24,28.5c-2.8,0-5-2.3-5-5c0-2.8,2.2-5,5-5c2.8,0,5,2.3,5,5C29,26.2,26.8,28.5,24,28.5z
		 M24,20.4c-1.7,0-3,1.4-3,3c0,1.7,1.3,3,3,3c1.7,0,3-1.4,3-3C27,21.8,25.7,20.4,24,20.4z"/>
	<path display="inline" fill="#161A19" d="M51,67.5h-2v-25c0-4.4-3.6-8-8-8c-4.4,0-8,3.6-8,8v25h-2v-25c0-5.5,4.5-10,10-10
		c5.5,0,10,4.5,10,10V67.5z"/>
	<path display="inline" fill="#161A19" d="M47,46.5H35v-4c0-3.3,2.7-6,6-6c3.3,0,6,2.7,6,6V46.5z M37,44.5h8v-2c0-2.2-1.8-4-4-4
		c-2.2,0-4,1.8-4,4V44.5z"/>
	<polygon display="inline" fill="#0B80C4" points="59,42.5 53,42.5 53,40.5 57,40.5 57,27.5 59,27.5 	"/>
	<polygon display="inline" fill="#0B80C4" points="29,42.5 23,42.5 23,27.5 25,27.5 25,40.5 29,40.5 	"/>
	<g display="inline">
		<path fill="#0B80C4" d="M77,37.5c-2.8,0-5-2.3-5-5c0-2.8,2.2-5,5-5c2.8,0,5,2.3,5,5C82,35.2,79.8,37.5,77,37.5z M77,29.4
			c-1.7,0-3,1.4-3,3s1.3,3,3,3c1.7,0,3-1.4,3-3S78.7,29.4,77,29.4z"/>
		<polygon fill="#0B80C4" points="67,49.5 53,49.5 53,47.5 65,47.5 65,31.5 73,31.5 73,33.5 67,33.5 		"/>
	</g>
	<g display="inline">
		<path fill="#0B80C4" d="M5,37.5c-2.8,0-5-2.3-5-5c0-2.8,2.2-5,5-5c2.8,0,5,2.3,5,5C10,35.2,7.8,37.5,5,37.5z M5,29.4
			c-1.7,0-3,1.4-3,3s1.3,3,3,3c1.7,0,3-1.4,3-3S6.7,29.4,5,29.4z"/>
		<polygon fill="#0B80C4" points="29,49.5 15,49.5 15,33.5 9,33.5 9,31.5 17,31.5 17,47.5 29,47.5 		"/>
	</g>
</g>
<g display="none">
	<g display="inline">
		<path fill="#0B80C4" d="M41,10.1c-2.8,0-5-2.3-5-5c0-2.8,2.2-5,5-5s5,2.3,5,5C46,7.8,43.8,10.1,41,10.1z M41,2c-1.7,0-3,1.4-3,3
			s1.3,3,3,3s3-1.4,3-3S42.7,2,41,2z"/>
		<rect x="40" y="9.2" fill="#0B80C4" width="2" height="8.8"/>
	</g>
	<g display="inline">
		<path fill="#0B80C4" d="M41,74c-2.8,0-5-2.3-5-5c0-2.8,2.2-5,5-5s5,2.3,5,5C46,71.7,43.8,74,41,74z M41,65.9c-1.7,0-3,1.4-3,3
			c0,1.7,1.3,3,3,3s3-1.4,3-3C44,67.3,42.7,65.9,41,65.9z"/>
		<rect x="40" y="56" fill="#0B80C4" width="2" height="8.8"/>
	</g>
	<path display="inline" fill="#161A19" d="M41,54.2l-12-7.6V27.5l12-7.6l12,7.6v19.1L41,54.2z M31,45.5l10,6.4l10-6.4V28.5l-10-6.4
		l-10,6.4V45.5z"/>
	<g display="inline">
		<g>
			<path fill="#0B80C4" d="M73,28c-2.8,0-5-2.3-5-5c0-2.8,2.2-5,5-5s5,2.3,5,5C78,25.7,75.8,28,73,28z M73,19.9c-1.7,0-3,1.4-3,3
				c0,1.7,1.3,3,3,3s3-1.4,3-3C76,21.3,74.7,19.9,73,19.9z"/>
			<polygon fill="#0B80C4" points="63,32 55,32 55,30 61,30 61,22 69,22 69,24 63,24 			"/>
		</g>
		<g>
			<path fill="#0B80C4" d="M73,55.1c-2.8,0-5-2.3-5-5c0-2.8,2.2-5,5-5s5,2.3,5,5C78,52.8,75.8,55.1,73,55.1z M73,47
				c-1.7,0-3,1.4-3,3s1.3,3,3,3s3-1.4,3-3S74.7,47,73,47z"/>
			<polygon fill="#0B80C4" points="69,51 61,51 61,43 55,43 55,41 63,41 63,49 69,49 			"/>
		</g>
	</g>
	<g display="inline">
		<g>
			<path fill="#0B80C4" d="M9,28c-2.8,0-5-2.3-5-5c0-2.8,2.2-5,5-5s5,2.3,5,5C14,25.7,11.8,28,9,28z M9,19.9c-1.7,0-3,1.4-3,3
				c0,1.7,1.3,3,3,3s3-1.4,3-3C12,21.3,10.7,19.9,9,19.9z"/>
			<polygon fill="#0B80C4" points="27,32 19,32 19,24 13,24 13,22 21,22 21,30 27,30 			"/>
		</g>
		<g>
			<path fill="#0B80C4" d="M9,55.1c-2.8,0-5-2.3-5-5c0-2.8,2.2-5,5-5s5,2.3,5,5C14,52.8,11.8,55.1,9,55.1z M9,47c-1.7,0-3,1.4-3,3
				s1.3,3,3,3s3-1.4,3-3S10.7,47,9,47z"/>
			<polygon fill="#0B80C4" points="21,51 13,51 13,49 19,49 19,41 27,41 27,43 21,43 			"/>
		</g>
	</g>
	<g display="inline">
		<path fill="#161A19" d="M43.8,40.8c-0.3,0-0.5-0.1-0.7-0.3l-5.7-5.7c-0.4-0.4-0.4-1,0-1.4c0.4-0.4,1-0.4,1.4,0l5.7,5.7
			c0.4,0.4,0.4,1,0,1.4C44.3,40.7,44.1,40.8,43.8,40.8z"/>
		<path fill="#161A19" d="M38.2,40.8c-0.3,0-0.5-0.1-0.7-0.3c-0.4-0.4-0.4-1,0-1.4l5.7-5.7c0.4-0.4,1-0.4,1.4,0c0.4,0.4,0.4,1,0,1.4
			l-5.7,5.7C38.7,40.7,38.4,40.8,38.2,40.8z"/>
	</g>
</g>
<g display="none">
	<g display="inline">
		<polygon fill="#0B80C4" points="26.1,58.1 5.1,47.6 5.1,43.3 7.1,43.3 7.1,46.4 26.1,55.9 45.1,46.4 45.1,43.3 47.1,43.3 
			47.1,47.6 		"/>
		<polygon fill="#0B80C4" points="26.1,48.1 5.1,37.6 5.1,33.3 7.1,33.3 7.1,36.4 26.1,45.9 45.1,36.4 45.1,33.3 47.1,33.3 
			47.1,37.6 		"/>
		<path fill="#0B80C4" d="M26.1,38.1L3.9,27l22.2-11.1L48.4,27L26.1,38.1z M8.4,27l17.8,8.9L43.9,27l-17.8-8.9L8.4,27z"/>
	</g>
	<g display="inline">
		<rect x="63.1" y="21" fill="#161A19" width="15" height="2"/>
		<rect x="52.1" y="30" fill="#161A19" width="26" height="2"/>
		<path fill="#161A19" d="M60.1,26h-8v-8h8V26z M54.1,24h4v-4h-4V24z"/>
	</g>
	<g display="inline">
		<rect x="63.1" y="45" fill="#161A19" width="15" height="2"/>
		<rect x="52.1" y="54" fill="#161A19" width="26" height="2"/>
		<path fill="#161A19" d="M60.1,50h-8v-8h8V50z M54.1,48h4v-4h-4V48z"/>
	</g>
</g>
<g display="none">
	<g display="inline">
		<polygon fill="#0B80C4" points="49,55.2 40.6,51 41.4,49.2 49,53 62,46.5 62,28.7 49,21.3 41.5,25.6 40.5,23.8 49,19 64,27.5 
			64,47.7 		"/>
		<polygon fill="#0B80C4" points="37.6,49.5 34,47.7 34,27.5 37.5,25.5 38.5,27.3 36,28.7 36,46.5 38.4,47.7 		"/>
	</g>
	<path display="inline" fill="#161A19" d="M44.9,69.9l-0.2-2c2.5-0.3,4.9-0.9,7.3-1.8l0.7,1.9C50.1,68.9,47.5,69.6,44.9,69.9z
		 M36.9,69.9c-2.6-0.3-5.2-1-7.7-1.9l0.7-1.9c2.3,0.9,4.8,1.5,7.2,1.8L36.9,69.9z M59.7,64.3l-1.1-1.6c2.1-1.4,3.9-3.1,5.6-4.9
		l1.5,1.3C63.9,61.1,61.8,62.8,59.7,64.3z M22.2,64.2c-2.2-1.5-4.2-3.3-5.9-5.3l1.5-1.3c1.7,1.9,3.5,3.5,5.6,5L22.2,64.2z
		 M70.2,52.6l-1.8-0.9c1.2-2.2,2.1-4.6,2.7-7l1.9,0.5C72.4,47.7,71.4,50.2,70.2,52.6z M11.7,52.4c-1.2-2.4-2.2-4.9-2.8-7.4l1.9-0.5
		c0.6,2.4,1.5,4.8,2.6,7L11.7,52.4z M74,37.2h-2l0-0.2c0-2.5-0.3-5-0.9-7.4l1.9-0.5c0.6,2.6,1,5.2,1,7.9L74,37.2z M10,37l-2,0
		c0-2.7,0.3-5.3,1-7.9l1.9,0.5C10.3,32,10,34.5,10,37z M68.5,22.7c-1.2-2.2-2.6-4.3-4.2-6.1l1.5-1.3c1.8,2,3.3,4.2,4.5,6.5
		L68.5,22.7z M13.6,22.7l-1.8-0.9c1.2-2.3,2.8-4.5,4.5-6.5l1.5,1.3C16.2,18.4,14.7,20.5,13.6,22.7z M58.6,11.6
		C56.6,10.2,54.3,9,52,8.1l0.7-1.9c2.5,0.9,4.8,2.2,7,3.7L58.6,11.6z M23.4,11.6l-1.1-1.6c2.2-1.5,4.6-2.8,7-3.7L30,8.1
		C27.7,9,25.5,10.2,23.4,11.6z M44.8,6.3c-2.5-0.3-5-0.3-7.5,0l-0.2-2C39.7,4,42.4,4,45,4.4L44.8,6.3z"/>
	<g display="inline">
		<path fill="#161A19" d="M33,55.2l-15-7.5V27.5L33,19l15,8.6v20.2L33,55.2z M20,46.5L33,53l13-6.5V28.7l-13-7.4l-13,7.4V46.5z"/>
	</g>
</g>
<g display="none">
	<g display="inline">
		<g>
			<g>
				<polygon fill="#0B80C4" points="12,72.7 10,72.7 10,38.7 9,38.7 9,36.7 12,36.7 				"/>
				<polygon fill="#0B80C4" points="30,72.7 28,72.7 28,36.7 31,36.7 31,38.7 30,38.7 				"/>
				<rect x="19" y="52.7" fill="#0B80C4" width="2" height="20"/>
				<path fill="#0B80C4" d="M36,54.7h-4v-2h2v-18c0-6.4-4.2-11-10-11h-8c-5.8,0-10,4.6-10,11v18h2v2H4v-20c0-7.4,5.2-13,12-13h8
					c6.8,0,12,5.6,12,13V54.7z"/>
				<path fill="#0B80C4" d="M20,19.7c-4.2,0-7-3.2-7-8s2.8-8,7-8c4.2,0,7,3.2,7,8S24.2,19.7,20,19.7z M20,5.7c-3.7,0-5,3.2-5,6
					s1.3,6,5,6c3.7,0,5-3.2,5-6S23.7,5.7,20,5.7z"/>
				<g>
					<rect x="19" y="30.7" fill="#0B80C4" width="2" height="2"/>
					<rect x="19" y="36.7" fill="#0B80C4" width="2" height="2"/>
					<rect x="19" y="42.7" fill="#0B80C4" width="2" height="2"/>
				</g>
			</g>
			<g>
				<rect x="34" y="56.7" fill="#161A19" width="2" height="16"/>
				<polygon fill="#161A19" points="50,72.7 48,72.7 48.1,44.7 51,44.7 51,46.7 50.1,46.7 				"/>
				<rect x="41" y="56.8" fill="#161A19" width="2" height="15.9"/>
				<path fill="#161A19" d="M55,58.7h-3v-2h1V42.5c0-4.9-3.5-8.8-7.9-8.8h-6.4v-2h6.4c5.6,0,9.9,4.8,9.9,10.8V58.7z"/>
				<path fill="#161A19" d="M41.5,29.7c-3.2,0-5.5-2.7-5.5-6.5s2.3-6.5,5.5-6.5c3.2,0,5.5,2.7,5.5,6.5S44.7,29.7,41.5,29.7z
					 M41.5,18.7c-2.6,0-3.5,2.4-3.5,4.5s0.9,4.5,3.5,4.5s3.5-2.4,3.5-4.5S44.1,18.7,41.5,18.7z"/>
			</g>
		</g>
		<polygon fill="#161A19" points="64.9,32.9 52.7,23.7 49,23.7 49,21.7 53.3,21.7 65.1,30.6 76.6,24.8 77.5,26.6 		"/>
		<polygon fill="#0B80C4" points="62.1,13.9 45,5.8 33.2,10.7 29,10.7 29,8.7 32.8,8.7 45,3.6 61.9,11.6 76.4,1.9 77.6,3.6 		"/>
	</g>
	<path display="inline" fill="#161A19" d="M76.2,29.6c-0.1,0-0.2,0-0.3,0c-0.5-0.1-0.9-0.7-0.7-1.2l0.5-1.9l-1.9-0.5
		c-0.5-0.1-0.9-0.7-0.7-1.2c0.1-0.5,0.7-0.8,1.2-0.7l2.9,0.8c0.5,0.1,0.9,0.7,0.7,1.2l-0.8,2.9C77.1,29.3,76.7,29.6,76.2,29.6z"/>
	<path display="inline" fill="#0B80C4" d="M76.6,6.7c0,0-0.1,0-0.1,0c-0.5-0.1-0.9-0.6-0.8-1.1l0.3-2l-2-0.3C73.3,3.2,73,2.7,73,2.1
		c0.1-0.5,0.6-0.9,1.1-0.8l3,0.4c0.5,0.1,0.9,0.6,0.8,1.1l-0.4,3C77.5,6.3,77,6.7,76.6,6.7z"/>
</g>
</svg>
